<svg width="54" height="42" viewBox="0 0 54 42" fill="none" xmlns="http://www.w3.org/2000/svg">
<path d="M47.25 4.125C48.1451 4.125 49.0035 4.48058 49.6365 5.11351C50.2694 5.74645 50.625 6.60489 50.625 7.5V34.5C50.625 35.3951 50.2694 36.2535 49.6365 36.8865C49.0035 37.5194 48.1451 37.875 47.25 37.875H6.75C5.85489 37.875 4.99645 37.5194 4.36351 36.8865C3.73058 36.2535 3.375 35.3951 3.375 34.5V7.5C3.375 6.60489 3.73058 5.74645 4.36351 5.11351C4.99645 4.48058 5.85489 4.125 6.75 4.125H47.25ZM6.75 0.75C4.95979 0.75 3.2429 1.46116 1.97703 2.72703C0.711159 3.9929 0 5.70979 0 7.5L0 34.5C0 36.2902 0.711159 38.0071 1.97703 39.273C3.2429 40.5388 4.95979 41.25 6.75 41.25H47.25C49.0402 41.25 50.7571 40.5388 52.023 39.273C53.2888 38.0071 54 36.2902 54 34.5V7.5C54 5.70979 53.2888 3.9929 52.023 2.72703C50.7571 1.46116 49.0402 0.75 47.25 0.75H6.75Z" fill="#5BECAD"/>
<path d="M6.75 12.5625C6.75 12.1149 6.92779 11.6857 7.24426 11.3693C7.56073 11.0528 7.98995 10.875 8.4375 10.875H15.1875C15.6351 10.875 16.0643 11.0528 16.3807 11.3693C16.6972 11.6857 16.875 12.1149 16.875 12.5625V15.9375C16.875 16.3851 16.6972 16.8143 16.3807 17.1307C16.0643 17.4472 15.6351 17.625 15.1875 17.625H8.4375C7.98995 17.625 7.56073 17.4472 7.24426 17.1307C6.92779 16.8143 6.75 16.3851 6.75 15.9375V12.5625ZM6.75 22.6875C6.75 22.2399 6.92779 21.8107 7.24426 21.4943C7.56073 21.1778 7.98995 21 8.4375 21H25.3125C25.7601 21 26.1893 21.1778 26.5057 21.4943C26.8222 21.8107 27 22.2399 27 22.6875C27 23.1351 26.8222 23.5643 26.5057 23.8807C26.1893 24.1972 25.7601 24.375 25.3125 24.375H8.4375C7.98995 24.375 7.56073 24.1972 7.24426 23.8807C6.92779 23.5643 6.75 23.1351 6.75 22.6875ZM6.75 29.4375C6.75 28.9899 6.92779 28.5607 7.24426 28.2443C7.56073 27.9278 7.98995 27.75 8.4375 27.75H11.8125C12.2601 27.75 12.6893 27.9278 13.0057 28.2443C13.3222 28.5607 13.5 28.9899 13.5 29.4375C13.5 29.8851 13.3222 30.3143 13.0057 30.6307C12.6893 30.9472 12.2601 31.125 11.8125 31.125H8.4375C7.98995 31.125 7.56073 30.9472 7.24426 30.6307C6.92779 30.3143 6.75 29.8851 6.75 29.4375ZM16.875 29.4375C16.875 28.9899 17.0528 28.5607 17.3693 28.2443C17.6857 27.9278 18.1149 27.75 18.5625 27.75H21.9375C22.3851 27.75 22.8143 27.9278 23.1307 28.2443C23.4472 28.5607 23.625 28.9899 23.625 29.4375C23.625 29.8851 23.4472 30.3143 23.1307 30.6307C22.8143 30.9472 22.3851 31.125 21.9375 31.125H18.5625C18.1149 31.125 17.6857 30.9472 17.3693 30.6307C17.0528 30.3143 16.875 29.8851 16.875 29.4375ZM27 29.4375C27 28.9899 27.1778 28.5607 27.4943 28.2443C27.8107 27.9278 28.2399 27.75 28.6875 27.75H32.0625C32.5101 27.75 32.9393 27.9278 33.2557 28.2443C33.5722 28.5607 33.75 28.9899 33.75 29.4375C33.75 29.8851 33.5722 30.3143 33.2557 30.6307C32.9393 30.9472 32.5101 31.125 32.0625 31.125H28.6875C28.2399 31.125 27.8107 30.9472 27.4943 30.6307C27.1778 30.3143 27 29.8851 27 29.4375ZM37.125 29.4375C37.125 28.9899 37.3028 28.5607 37.6193 28.2443C37.9357 27.9278 38.3649 27.75 38.8125 27.75H42.1875C42.6351 27.75 43.0643 27.9278 43.3807 28.2443C43.6972 28.5607 43.875 28.9899 43.875 29.4375C43.875 29.8851 43.6972 30.3143 43.3807 30.6307C43.0643 30.9472 42.6351 31.125 42.1875 31.125H38.8125C38.3649 31.125 37.9357 30.9472 37.6193 30.6307C37.3028 30.3143 37.125 29.8851 37.125 29.4375Z" fill="#5BECAD"/>
</svg>
