<svg width="26" height="24" viewBox="0 0 26 24" fill="none" xmlns="http://www.w3.org/2000/svg">
<path d="M5.83334 6.16669H21.9217C22.2477 6.1667 22.57 6.23502 22.868 6.36724C23.166 6.49947 23.4329 6.69266 23.6517 6.93437C23.8704 7.17608 24.0361 7.46094 24.138 7.77059C24.2399 8.08024 24.2758 8.40782 24.2433 8.73219L23.5433 15.7322C23.4858 16.3079 23.2163 16.8418 22.7873 17.23C22.3583 17.6183 21.8003 17.8333 21.2217 17.8334H10.08C9.54039 17.8336 9.01738 17.6467 8.60003 17.3047C8.18267 16.9626 7.89677 16.4865 7.79101 15.9574L5.83334 6.16669Z" stroke="#4D6356" stroke-width="3" stroke-linejoin="round"/>
<path d="M5.83334 6.16667L4.88834 2.38317C4.82514 2.13088 4.67945 1.90694 4.47442 1.74693C4.26938 1.58692 4.01676 1.50001 3.75668 1.5H2.33334" stroke="#4D6356" stroke-width="3" stroke-linecap="round" stroke-linejoin="round"/>
<path d="M9.33334 22.5H11.6667" stroke="#4D6356" stroke-width="3" stroke-linecap="round" stroke-linejoin="round"/>
<path d="M18.6667 22.5H21" stroke="#4D6356" stroke-width="3" stroke-linecap="round" stroke-linejoin="round"/>
</svg>
