<svg width="55" height="55" viewBox="0 0 55 55" fill="none" xmlns="http://www.w3.org/2000/svg">
<path d="M32.9375 4H5.4375C4.52582 4 3.65148 4.36216 3.00682 5.00682C2.36216 5.65148 2 6.52582 2 7.4375V45.25C2 46.1617 2.36216 47.036 3.00682 47.6807C3.65148 48.3253 4.52582 48.6875 5.4375 48.6875H32.9375C33.8492 48.6875 34.7235 48.3253 35.3682 47.6807C36.0128 47.036 36.375 46.1617 36.375 45.25V7.4375C36.375 6.52582 36.0128 5.65148 35.3682 5.00682C34.7235 4.36216 33.8492 4 32.9375 4ZM32.9375 7.4375V17.75H5.4375V7.4375H32.9375ZM5.4375 31.5V21.1875H32.9375V31.5H5.4375ZM5.4375 45.25V34.9375H32.9375V45.25H5.4375Z" fill="#5BECAD"/>
<path d="M18.9062 15.4688C19.8555 15.4688 20.625 14.6992 20.625 13.75C20.625 12.8008 19.8555 12.0312 18.9062 12.0312C17.957 12.0312 17.1875 12.8008 17.1875 13.75C17.1875 14.6992 17.957 15.4688 18.9062 15.4688Z" fill="#5BECAD"/>
<path d="M18.9062 29.2188C19.8555 29.2188 20.625 28.4492 20.625 27.5C20.625 26.5508 19.8555 25.7812 18.9062 25.7812C17.957 25.7812 17.1875 26.5508 17.1875 27.5C17.1875 28.4492 17.957 29.2188 18.9062 29.2188Z" fill="#5BECAD"/>
<path d="M18.9062 42.9688C19.8555 42.9688 20.625 42.1992 20.625 41.25C20.625 40.3008 19.8555 39.5312 18.9062 39.5312C17.957 39.5312 17.1875 40.3008 17.1875 41.25C17.1875 42.1992 17.957 42.9688 18.9062 42.9688Z" fill="#5BECAD"/>
</svg>
