<svg width="54" height="40" viewBox="0 0 54 40" fill="none" xmlns="http://www.w3.org/2000/svg">
<path d="M1.79323 7.51499C1.79323 6.17794 2.32437 4.89565 3.26981 3.95021C4.21524 3.00477 5.49753 2.47363 6.83458 2.47363H47.1654C48.5025 2.47363 49.7847 3.00477 50.7302 3.95021C51.6756 4.89565 52.2068 6.17794 52.2068 7.51499V32.7218C52.2068 34.0588 51.6756 35.3411 50.7302 36.2865C49.7847 37.232 48.5025 37.7631 47.1654 37.7631H6.83458C5.49753 37.7631 4.21524 37.232 3.26981 36.2865C2.32437 35.3411 1.79323 34.0588 1.79323 32.7218V7.51499Z" stroke="#5BECAD" stroke-width="4" stroke-linecap="round" stroke-linejoin="round"/>
<path d="M27 27.6805C31.1764 27.6805 34.562 24.2948 34.562 20.1184C34.562 15.942 31.1764 12.5564 27 12.5564C22.8236 12.5564 19.438 15.942 19.438 20.1184C19.438 24.2948 22.8236 27.6805 27 27.6805Z" stroke="#5BECAD" stroke-width="4" stroke-linecap="round" stroke-linejoin="round"/>
<path d="M1.79323 12.5563C4.46733 12.5563 7.0319 11.4941 8.92278 9.60318C10.8137 7.71231 11.8759 5.14773 11.8759 2.47363" stroke="#5BECAD" stroke-width="4" stroke-linecap="round" stroke-linejoin="round"/>
<path d="M42.1241 37.7631C42.1241 35.089 43.1863 32.5245 45.0772 30.6336C46.9681 28.7427 49.5327 27.6804 52.2068 27.6804" stroke="#5BECAD" stroke-width="4" stroke-linecap="round" stroke-linejoin="round"/>
</svg>
