<svg width="50" height="50" viewBox="0 0 50 50" fill="none" xmlns="http://www.w3.org/2000/svg">
<path d="M8.79584 41.2042C9.76224 42.172 10.9104 42.9393 12.1742 43.462C13.4381 43.9847 14.7927 44.2525 16.1604 44.25C17.5284 44.2524 18.8834 43.9846 20.1476 43.4619C21.4117 42.9392 22.5602 42.172 23.5271 41.2042L29.4188 35.3104L26.4729 32.3646L20.5813 38.2584C19.4072 39.4271 17.8181 40.0833 16.1615 40.0833C14.5049 40.0833 12.9157 39.4271 11.7417 38.2584C10.5719 37.0849 9.91502 35.4955 9.91502 33.8386C9.91502 32.1816 10.5719 30.5923 11.7417 29.4188L17.6354 23.5271L14.6896 20.5813L8.79584 26.4729C6.84544 28.4281 5.75011 31.0769 5.75011 33.8386C5.75011 36.6002 6.84544 39.2491 8.79584 41.2042ZM41.2042 23.5271C43.1536 21.5715 44.2482 18.9228 44.2482 16.1615C44.2482 13.4002 43.1536 10.7515 41.2042 8.79586C39.2491 6.84545 36.6002 5.75012 33.8386 5.75012C31.0769 5.75012 28.428 6.84545 26.4729 8.79586L20.5813 14.6896L23.5271 17.6354L29.4188 11.7417C30.5928 10.5729 32.1819 9.91675 33.8386 9.91675C35.4952 9.91675 37.0843 10.5729 38.2583 11.7417C39.4281 12.9152 40.085 14.5045 40.085 16.1615C40.085 17.8184 39.4281 19.4078 38.2583 20.5813L32.3646 26.4729L35.3104 29.4188L41.2042 23.5271Z" fill="#5BECAD"/>
<path d="M17.6333 35.3125L14.6854 32.3667L32.3667 14.6875L35.3125 17.6354L17.6333 35.3125Z" fill="#5BECAD"/>
</svg>
