<svg width="24" height="24" viewBox="0 0 24 24" fill="none" xmlns="http://www.w3.org/2000/svg">
<mask id="path-1-inside-1_55_225" fill="white">
<path d="M12 2.66665C17.145 2.66665 21.3333 6.85498 21.3333 12C21.3333 17.145 17.145 21.3333 12 21.3333C6.855 21.3333 2.66667 17.145 2.66667 12C2.66667 6.85498 6.855 2.66665 12 2.66665ZM12 0.333313C5.58333 0.333313 0.333334 5.58331 0.333334 12C0.333334 18.4166 5.58333 23.6666 12 23.6666C18.4167 23.6666 23.6667 18.4166 23.6667 12C23.6667 5.58331 18.4167 0.333313 12 0.333313ZM7.835 14.8466L6.24833 14.135C6.575 13.4816 6.75 12.7816 6.75 12.0583C6.75 11.2883 6.575 10.5533 6.24833 9.86498L7.835 9.15331C8.27834 10.0983 8.5 11.0666 8.5 12.0583C8.5 12.9333 8.27834 13.8666 7.835 14.8466ZM11.4517 16.5966L9.92334 15.8383C10.5417 14.52 10.8333 13.1666 10.8333 11.8366C10.8333 10.5183 10.5417 9.30498 9.92334 8.16165L11.4517 7.28665C12.2217 8.63998 12.5833 10.1566 12.5833 11.8366C12.5833 13.5516 12.2217 15.1383 11.4517 16.5966ZM15.1267 18.2416L13.5283 17.425C14.45 15.6283 14.9167 13.8316 14.9167 12C14.9167 10.1683 14.45 8.34831 13.5283 6.52831L15.1267 5.75831C16.1417 7.83498 16.6667 9.92331 16.6667 12C16.6667 14.1233 16.1417 16.2 15.1267 18.2416Z"/>
</mask>
<path d="M12 2.66665C17.145 2.66665 21.3333 6.85498 21.3333 12C21.3333 17.145 17.145 21.3333 12 21.3333C6.855 21.3333 2.66667 17.145 2.66667 12C2.66667 6.85498 6.855 2.66665 12 2.66665ZM12 0.333313C5.58333 0.333313 0.333334 5.58331 0.333334 12C0.333334 18.4166 5.58333 23.6666 12 23.6666C18.4167 23.6666 23.6667 18.4166 23.6667 12C23.6667 5.58331 18.4167 0.333313 12 0.333313ZM7.835 14.8466L6.24833 14.135C6.575 13.4816 6.75 12.7816 6.75 12.0583C6.75 11.2883 6.575 10.5533 6.24833 9.86498L7.835 9.15331C8.27834 10.0983 8.5 11.0666 8.5 12.0583C8.5 12.9333 8.27834 13.8666 7.835 14.8466ZM11.4517 16.5966L9.92334 15.8383C10.5417 14.52 10.8333 13.1666 10.8333 11.8366C10.8333 10.5183 10.5417 9.30498 9.92334 8.16165L11.4517 7.28665C12.2217 8.63998 12.5833 10.1566 12.5833 11.8366C12.5833 13.5516 12.2217 15.1383 11.4517 16.5966ZM15.1267 18.2416L13.5283 17.425C14.45 15.6283 14.9167 13.8316 14.9167 12C14.9167 10.1683 14.45 8.34831 13.5283 6.52831L15.1267 5.75831C16.1417 7.83498 16.6667 9.92331 16.6667 12C16.6667 14.1233 16.1417 16.2 15.1267 18.2416Z" fill="#4D6356"/>
<path d="M6.24833 14.135L-0.0126558 11.0045L-3.27753 17.5342L3.3836 20.5219L6.24833 14.135ZM6.24833 9.86498L3.3836 3.47802L-3.142 6.40494L-0.075646 12.8662L6.24833 9.86498ZM7.835 9.15331L14.1723 6.18027L11.2494 -0.0500301L4.97026 2.76635L7.835 9.15331ZM11.4517 16.5966L8.34033 22.8672L14.4548 25.9011L17.6418 19.865L11.4517 16.5966ZM9.92334 15.8383L3.5858 12.8658L0.678084 19.0653L6.812 22.1088L9.92334 15.8383ZM9.92334 8.16165L6.44537 2.0868L0.515801 5.48159L3.7661 11.4916L9.92334 8.16165ZM11.4517 7.28665L17.5358 3.82498L14.0649 -2.2755L7.9737 1.2118L11.4517 7.28665ZM15.1267 18.2416L11.9417 24.4751L18.2441 27.6953L21.3948 21.3578L15.1267 18.2416ZM13.5283 17.425L7.30003 14.2299L4.09983 20.4683L10.3434 23.6584L13.5283 17.425ZM13.5283 6.52831L10.4902 0.221968L4.05765 3.32088L7.28344 9.69079L13.5283 6.52831ZM15.1267 5.75831L21.4157 2.68448L18.3592 -3.56893L12.0886 -0.548032L15.1267 5.75831ZM12 9.66665C13.279 9.66665 14.3333 10.721 14.3333 12H28.3333C28.3333 2.98899 21.011 -4.33335 12 -4.33335V9.66665ZM14.3333 12C14.3333 13.279 13.279 14.3333 12 14.3333V28.3333C21.011 28.3333 28.3333 21.011 28.3333 12H14.3333ZM12 14.3333C10.721 14.3333 9.66667 13.279 9.66667 12H-4.33333C-4.33333 21.011 2.98901 28.3333 12 28.3333V14.3333ZM9.66667 12C9.66667 10.721 10.721 9.66665 12 9.66665V-4.33335C2.98901 -4.33335 -4.33333 2.98899 -4.33333 12H9.66667ZM12 -6.66669C1.71734 -6.66669 -6.66667 1.71732 -6.66667 12H7.33333C7.33333 9.44931 9.44933 7.33331 12 7.33331V-6.66669ZM-6.66667 12C-6.66667 22.2826 1.71734 30.6666 12 30.6666V16.6666C9.44933 16.6666 7.33333 14.5507 7.33333 12H-6.66667ZM12 30.6666C22.2827 30.6666 30.6667 22.2826 30.6667 12H16.6667C16.6667 14.5507 14.5507 16.6666 12 16.6666V30.6666ZM30.6667 12C30.6667 1.71732 22.2827 -6.66669 12 -6.66669V7.33331C14.5507 7.33331 16.6667 9.44931 16.6667 12H30.6667ZM10.6997 8.45969L9.11307 7.74802L3.3836 20.5219L4.97026 21.2336L10.6997 8.45969ZM12.5093 17.2655C13.2906 15.703 13.75 13.9365 13.75 12.0583H-0.249999C-0.249999 11.6268 -0.140571 11.2603 -0.0126558 11.0045L12.5093 17.2655ZM13.75 12.0583C13.75 10.1978 13.3211 8.44154 12.5723 6.86377L-0.075646 12.8662C-0.171086 12.6651 -0.249999 12.3788 -0.249999 12.0583H13.75ZM9.11307 16.2519L10.6997 15.5403L4.97026 2.76635L3.3836 3.47802L9.11307 16.2519ZM1.49773 12.1264C1.50847 12.1492 1.51299 12.1618 1.51392 12.1645C1.51481 12.1671 1.51294 12.1621 1.51025 12.1503C1.50754 12.1385 1.50477 12.1232 1.50278 12.1056C1.50079 12.088 1.5 12.0718 1.5 12.0583H15.5C15.5 9.98508 15.0286 8.00555 14.1723 6.18027L1.49773 12.1264ZM1.5 12.0583C1.5 11.9023 1.51996 11.8092 1.52434 11.7908C1.5282 11.7746 1.5165 11.8305 1.45725 11.9615L14.2128 17.7318C14.9775 16.0413 15.5 14.1231 15.5 12.0583H1.5ZM14.563 10.3261L13.0347 9.56778L6.812 22.1088L8.34033 22.8672L14.563 10.3261ZM16.2609 18.8108C17.3095 16.575 17.8333 14.208 17.8333 11.8366H3.83333C3.83333 12.1253 3.7738 12.465 3.5858 12.8658L16.2609 18.8108ZM17.8333 11.8366C17.8333 9.4223 17.2829 7.05493 16.0806 4.83171L3.7661 11.4916C3.79703 11.5488 3.80688 11.5813 3.81258 11.6045C3.81886 11.6301 3.83333 11.6993 3.83333 11.8366H17.8333ZM13.4013 14.2365L14.9296 13.3615L7.9737 1.2118L6.44537 2.0868L13.4013 14.2365ZM5.36752 10.7483C5.45744 10.9064 5.58333 11.1981 5.58333 11.8366H19.5833C19.5833 9.11522 18.9859 6.37361 17.5358 3.82498L5.36752 10.7483ZM5.58333 11.8366C5.58333 12.5288 5.44792 12.9753 5.26154 13.3283L17.6418 19.865C18.9954 17.3014 19.5833 14.5745 19.5833 11.8366H5.58333ZM18.3116 12.0082L16.7133 11.1915L10.3434 23.6584L11.9417 24.4751L18.3116 12.0082ZM19.7566 20.62C21.1203 17.9617 21.9167 15.0773 21.9167 12H7.91667C7.91667 12.586 7.77969 13.2949 7.30003 14.2299L19.7566 20.62ZM21.9167 12C21.9167 8.93248 21.1255 6.0361 19.7732 3.36583L7.28344 9.69079C7.77452 10.6605 7.91667 11.4041 7.91667 12H21.9167ZM16.5664 12.8347L18.1648 12.0647L12.0886 -0.548032L10.4902 0.221968L16.5664 12.8347ZM8.83767 8.83215C9.45309 10.0913 9.66667 11.1339 9.66667 12H23.6667C23.6667 8.71273 22.8302 5.57868 21.4157 2.68448L8.83767 8.83215ZM9.66667 12C9.66667 12.924 9.44761 13.9406 8.85853 15.1255L21.3948 21.3578C22.8357 18.4594 23.6667 15.3226 23.6667 12H9.66667Z" fill="#4D6356" mask="url(#path-1-inside-1_55_225)"/>
</svg>
