<svg width="51" height="47" viewBox="0 0 51 47" fill="none" xmlns="http://www.w3.org/2000/svg">
<path d="M40.3958 16.625H10.6042C9.33851 16.625 8.3125 17.651 8.3125 18.9167V41.8333C8.3125 43.099 9.33851 44.125 10.6042 44.125H40.3958C41.6615 44.125 42.6875 43.099 42.6875 41.8333V18.9167C42.6875 17.651 41.6615 16.625 40.3958 16.625Z" stroke="#5BECAD" stroke-width="4"/>
<path d="M17.4792 28.0833C18.7448 28.0833 19.7708 27.0573 19.7708 25.7917C19.7708 24.526 18.7448 23.5 17.4792 23.5C16.2135 23.5 15.1875 24.526 15.1875 25.7917C15.1875 27.0573 16.2135 28.0833 17.4792 28.0833Z" fill="#5BECAD"/>
<path d="M33.5208 28.0833C34.7865 28.0833 35.8125 27.0573 35.8125 25.7917C35.8125 24.526 34.7865 23.5 33.5208 23.5C32.2552 23.5 31.2292 24.526 31.2292 25.7917C31.2292 27.0573 32.2552 28.0833 33.5208 28.0833Z" fill="#5BECAD"/>
<path d="M20.9167 32.6666C20.3089 32.6666 19.726 32.9081 19.2962 33.3378C18.8664 33.7676 18.625 34.3505 18.625 34.9583C18.625 35.5661 18.8664 36.149 19.2962 36.5787C19.726 37.0085 20.3089 37.25 20.9167 37.25V32.6666ZM30.0833 37.25C30.6911 37.25 31.274 37.0085 31.7038 36.5787C32.1336 36.149 32.375 35.5661 32.375 34.9583C32.375 34.3505 32.1336 33.7676 31.7038 33.3378C31.274 32.9081 30.6911 32.6666 30.0833 32.6666V37.25ZM20.9167 37.25H30.0833V32.6666H20.9167V37.25Z" fill="#5BECAD"/>
<path d="M25.5 7.45837V16.625" stroke="#5BECAD" stroke-width="4" stroke-linecap="round" stroke-linejoin="round"/>
<path d="M2.58331 25.7916V34.9583" stroke="#5BECAD" stroke-width="4" stroke-linecap="round" stroke-linejoin="round"/>
<path d="M48.4167 25.7916V34.9583" stroke="#5BECAD" stroke-width="4" stroke-linecap="round" stroke-linejoin="round"/>
<path d="M25.5 7.45833C26.7656 7.45833 27.7916 6.43232 27.7916 5.16667C27.7916 3.90101 26.7656 2.875 25.5 2.875C24.2343 2.875 23.2083 3.90101 23.2083 5.16667C23.2083 6.43232 24.2343 7.45833 25.5 7.45833Z" stroke="#5BECAD" stroke-width="4"/>
</svg>
