<svg width="55" height="55" viewBox="0 0 55 55" fill="none" xmlns="http://www.w3.org/2000/svg">
<path d="M22.9167 25.9722H6.11111C5.30073 25.9722 4.52354 25.6503 3.95051 25.0772C3.37748 24.5042 3.05556 23.727 3.05556 22.9166V12.2222C3.05556 11.4118 3.37748 10.6346 3.95051 10.0616C4.52354 9.48855 5.30073 9.16663 6.11111 9.16663H22.9167C23.7271 9.16663 24.5042 9.48855 25.0773 10.0616C25.6503 10.6346 25.9722 11.4118 25.9722 12.2222V22.9166C25.9722 23.727 25.6503 24.5042 25.0773 25.0772C24.5042 25.6503 23.7271 25.9722 22.9167 25.9722ZM6.11111 12.2222V22.9166H22.9167V12.2222H6.11111Z" fill="#5BECAD"/>
<path d="M48.8889 25.9722H32.0833C31.2729 25.9722 30.4958 25.6503 29.9227 25.0772C29.3497 24.5042 29.0278 23.727 29.0278 22.9166V12.2222C29.0278 11.4118 29.3497 10.6346 29.9227 10.0616C30.4958 9.48855 31.2729 9.16663 32.0833 9.16663H48.8889C49.6993 9.16663 50.4765 9.48855 51.0495 10.0616C51.6225 10.6346 51.9444 11.4118 51.9444 12.2222V22.9166C51.9444 23.727 51.6225 24.5042 51.0495 25.0772C50.4765 25.6503 49.6993 25.9722 48.8889 25.9722ZM32.0833 12.2222V22.9166H48.8889V12.2222H32.0833Z" fill="#5BECAD"/>
<path d="M22.9167 45.8334H6.11111C5.30073 45.8334 4.52354 45.5115 3.95051 44.9384C3.37748 44.3654 3.05556 43.5882 3.05556 42.7778V32.0834C3.05556 31.273 3.37748 30.4958 3.95051 29.9228C4.52354 29.3498 5.30073 29.0278 6.11111 29.0278H22.9167C23.7271 29.0278 24.5042 29.3498 25.0773 29.9228C25.6503 30.4958 25.9722 31.273 25.9722 32.0834V42.7778C25.9722 43.5882 25.6503 44.3654 25.0773 44.9384C24.5042 45.5115 23.7271 45.8334 22.9167 45.8334ZM6.11111 32.0834V42.7778H22.9167V32.0834H6.11111Z" fill="#5BECAD"/>
<path d="M48.8889 45.8334H32.0833C31.2729 45.8334 30.4958 45.5115 29.9227 44.9384C29.3497 44.3654 29.0278 43.5882 29.0278 42.7778V32.0834C29.0278 31.273 29.3497 30.4958 29.9227 29.9228C30.4958 29.3498 31.2729 29.0278 32.0833 29.0278H48.8889C49.6993 29.0278 50.4765 29.3498 51.0495 29.9228C51.6225 30.4958 51.9444 31.273 51.9444 32.0834V42.7778C51.9444 43.5882 51.6225 44.3654 51.0495 44.9384C50.4765 45.5115 49.6993 45.8334 48.8889 45.8334ZM32.0833 32.0834V42.7778H48.8889V32.0834H32.0833Z" fill="#5BECAD"/>
</svg>
